# xmcd CD database file
#
# Track frame offsets:
#	150
#	11379
#	32336
#	51824
#	66141
#
# Disc length: 1162 seconds
#
# Revision: 0
# Processed by: cddbd v1.5.2PL0 Copyright (c) Steve Scherf et al.
# Submitted via: CDex 1.51
#
DISCID=31048805
DTITLE=No mad - jazz cartoon
DYEAR=2007
DGENRE=Jazz
TTITLE0=Bailarina
TTITLE1=SDF
TTITLE2=Le grand roux
TTITLE3=Doc Mad
TTITLE4=Logresse
EXTD=YEAR: 2007
EXTT0=
EXTT1=
EXTT2=
EXTT3=
EXTT4=
PLAYORDER=
